PathFileType	4	(X/Y/Z)	24_2_60_p0_0-1410.trc
DataRate	CameraRate	NumFrames	NumMarkers	Units	OrigDataRate	OrigDataStartFrame	OrigNumFrames
59.0	59.0	5	27	m	59.0	0	1411
Frame#	Time	RHip			RKnee			RAnkle			RBigToe			RSmallToe			RHeel			LHip			LKnee			LAnkle			LBigToe			LSmallToe			LHeel			Neck			Head			Nose			RShoulder			RElbow			RWrist			RThumb			RIndex			RPinky			LShoulder			LElbow			LWrist			LThumb			LIndex			LPinky			
		X1	Y1	Z1	X2	Y2	Z2	X3	Y3	Z3	X4	Y4	Z4	X5	Y5	Z5	X6	Y6	Z6	X7	Y7	Z7	X8	Y8	Z8	X9	Y9	Z9	X10	Y10	Z10	X11	Y11	Z11	X12	Y12	Z12	X13	Y13	Z13	X14	Y14	Z14	X15	Y15	Z15	X16	Y16	Z16	X17	Y17	Z17	X18	Y18	Z18	X19	Y19	Z19	X20	Y20	Z20	X21	Y21	Z21	X22	Y22	Z22	X23	Y23	Z23	X24	Y24	Z24	X25	Y25	Z25	X26	Y26	Z26	X27	Y27	Z27	
0	0.0	0.4320157857182818	0.5720519044296685	0.8342258642599973	0.44556340684109597	0.6271731588056191	1.2843473677174368	0.41876413305917276	0.7073695642220227	1.6986230669305984	0.40582353791478415	0.5312877551148624	1.712770888344791	0.4587632064981482	0.5175911303520463	1.688745541757479	0.39138538454261446	0.7854535978643664	1.770586251191731	0.24574156862300373	0.5182962630241509	0.8288061860207223	0.21475563657589786	0.6139485417210466	1.2867053208278516	0.21684730916684233	0.6670356996173906	1.6869134635252352	0.24517390054368815	0.4812679476397729	1.6854769746946903	0.18892615557527503	0.5218874354907451	1.6982852753047069	0.22608030343955185	0.7296350601969352	1.7336218413734956	0.34279540489303023	0.4158145320829076	0.3539883402735133	0.33587196328409047	0.33913583175980444	0.11882079063767692	0.33403058598742047	0.2780025398494216	0.2351565641685076	0.47994436107446065	0.43135904472525444	0.43454596466308315	0.49703158389978463	0.47298256315024817	0.6773607645731188	0.4255417705940385	0.3942617404920522	0.8894751292558936	0.3241600749969899	0.3904513294107311	0.9643675030140765	0.3201042659760068	0.41176917841974353	0.995700138159935	0.3694147560279338	0.47675382121605603	1.034919356538488	0.185620040690093	0.44919593574459077	0.4534785074391484	0.17918036222507283	0.4122386919464793	0.6705492041500858	0.2629566268268186	0.4074335832146559	0.8745023107085	0.32629820219375716	0.3632403126083518	0.9266245150623502	0.3281623525191227	0.3615160450064254	0.9526678381652423	0.32325532857625533	0.38973616909080927	0.9677280110529907
1	0.01694915254237288	0.4330514378662708	0.5732987399470876	0.8348368014256655	0.4456686743649958	0.6271418983644688	1.2849041083299177	0.4256882164591276	0.6760158522869444	1.6796406315799461	0.4058543377189624	0.5311793834008898	1.7127105518869785	0.4598924660605756	0.5163243777290148	1.684286174605524	0.40145039468264565	0.7640200001766299	1.7595592094061794	0.24660290851005467	0.5163461779582706	0.8288908714543293	0.21774325620477983	0.6134937464230589	1.2883124863944304	0.21690522075631286	0.6669068079451765	1.6865963814501508	0.2463467157988784	0.49469265765044834	1.6915132318299624	0.18485135637687541	0.5493262211229024	1.7074928651770755	0.2273135360591425	0.7289489262590445	1.7280602464939692	0.3430615645034777	0.41542637632859375	0.3574679547237332	0.3377927911951663	0.3480840602652867	0.1152899708301904	0.334130353538467	0.27962001212240584	0.24198460955452508	0.4759710185951889	0.4302060765669423	0.43470681062591426	0.5016583860436545	0.477375657862809	0.6816135269930126	0.4291122092896909	0.3975579159620449	0.8863232843314315	0.32410575592253765	0.3909602959169352	0.9643971696060767	0.31956348358358044	0.4100003553482969	0.9906679230620153	0.36939229729271567	0.4768378479964115	1.0350798129919714	0.18434428929889687	0.43676940317630475	0.45295970128341834	0.18137683801044227	0.42574075753454427	0.6799657890866047	0.26483794009269346	0.4199212842747907	0.8769784184334172	0.3285729189845998	0.3744509948738737	0.9287336036976775	0.33032748983472043	0.37318296944498053	0.9549778392268675	0.3232926562095256	0.39044289976389995	0.968034811500184
2	0.03389830508474576	0.43300993996959636	0.5733880654517084	0.8347934994063625	0.44687462272016615	0.628110139145384	1.293911765817944	0.4248147433763779	0.6909179425081106	1.6909344979121705	0.4093552643076892	0.5028419631325971	1.6989450816324778	0.46462142467864376	0.5173697155892393	1.6842135574334791	0.40257596596836254	0.7675016477873073	1.7658010916837021	0.25304007098989256	0.5047606182615892	0.8304319125670603	0.21783020955627763	0.6134912692728363	1.2887316320232642	0.2168966831070312	0.6669326641827942	1.6866504935875055	0.244796709966337	0.4789544618589362	1.6805871605177887	0.19142002271031847	0.53524999659756	1.7005631510203498	0.22722245446735234	0.7292965190558931	1.728245371945032	0.3430615326375625	0.41541879941521864	0.35744748579258967	0.3377968530729752	0.3481555043488491	0.11541263134447909	0.3341754930164925	0.2796818474799346	0.24194826821893006	0.47620104868441926	0.42972874625390006	0.43124560989933786	0.5019531543254112	0.4778601381119696	0.6818288973460094	0.4298909947747131	0.39955823164599374	0.8905601192339697	0.3242622833224843	0.39062777088697326	0.9641693541788371	0.32126293230359576	0.4243071406879071	0.9978524224838007	0.3717942148455459	0.4892356450160983	1.0379892491076663	0.18436209589120342	0.4368185600653699	0.45305072044554584	0.18154915036981065	0.42580299572923136	0.6800851733917578	0.2649432929780549	0.42001818620722325	0.8770977947047399	0.3284261829453945	0.3750542574959857	0.9256358354162776	0.33065356325611517	0.37336108037689486	0.9547970711178441	0.32409913890580494	0.38958715990701204	0.9715910117537474
3	0.05084745762711865	0.433333583270656	0.5726034702894426	0.8385555381695965	0.44696858560490454	0.6278189264153482	1.2943952206906195	0.42832282808389854	0.6907999610564046	1.6856159115692577	0.4033683169967612	0.5146323867642838	1.7011992873948556	0.4646106977258924	0.5172401265889174	1.684075409582699	0.3944610856048751	0.7836495695210578	1.7644941199134403	0.2470423630367085	0.5204243997828791	0.8381366731200173	0.21784360934543412	0.6135973720850144	1.2889504758913168	0.21689346739038132	0.6670209438186923	1.6866591244378097	0.2459275484280501	0.49207081011786413	1.6866899735744718	0.18494940316150968	0.5495468684202912	1.7079197985032617	0.22908068804771262	0.7437221261805429	1.7344749752920434	0.3430447955968592	0.41541403177501934	0.3574110305923196	0.33782536841387134	0.3480548052694349	0.11533742025340438	0.33424331152239983	0.27961789921927205	0.2419836124850176	0.4760131397390071	0.429920503900019	0.4347704703621565	0.5019649068160441	0.47786090568687084	0.6817777512908079	0.4339598085906372	0.4016588294126782	0.8907145818633617	0.3245165099053583	0.39050177151566046	0.964126639399859	0.3217078132711694	0.42451923429370825	0.9977211934188747	0.3693411962759836	0.47701156566150327	1.0348501928702696	0.1844511539231574	0.4386426201429411	0.45650927424903254	0.18212414841462066	0.4252911558438283	0.6841844128042531	0.26923514849562274	0.4226183444954299	0.8778608021358001	0.32957584514377086	0.3755661884719292	0.9297510488508751	0.33471586519103713	0.37643049090112213	0.955342489715521	0.3279252434936615	0.3929605344992018	0.9758515494646758
4	0.06779661016949153	0.42937307749716175	0.5714569576144406	0.8384463766249955	0.44694957683841313	0.6279101977677398	1.2942251808368475	0.42835732654722986	0.6909289784723431	1.6855482090872966	0.40342278544707966	0.5146135367833258	1.701078752952827	0.46465792894787394	0.5172730207686193	1.684114991106063	0.4009629096618972	0.7661034893383516	1.7559540277429677	0.2429793147067202	0.5183502529031956	0.8381276585266489	0.21418815971155034	0.6107923212127595	1.2926990334080273	0.2169137274895936	0.6669414487405837	1.6866301739979521	0.245979551995137	0.49179265628250124	1.6866478420506854	0.18491433494591197	0.5493349465996403	1.707745282221103	0.22743048833581406	0.7296354478168623	1.7284705599701855	0.34305327452228346	0.4153232291219282	0.3575297843935904	0.33783001120886863	0.3481695928979253	0.11535115940339974	0.33395024878379737	0.2785675483794788	0.23844777254891367	0.4759917877646143	0.4298831819578909	0.43471215137505453	0.5025893454872477	0.4798022356964277	0.6854489802200378	0.43818175442726653	0.4033521904643744	0.8906817952651336	0.3305510555047925	0.37852493491693007	0.9604301607861786	0.3335924460451045	0.42555275354358585	0.9964475711256835	0.3629047729275345	0.4846632972313212	1.026123259078768	0.18438743900712404	0.43687014004403424	0.45314733703784066	0.18244109994146607	0.4259276263930591	0.6804750546254715	0.27518178249037123	0.43727971230049556	0.8807444004155285	0.3363709384061697	0.3794745445912821	0.9336878871259906	0.3477583266249995	0.3949500786171417	0.9591434622622375	0.33409717153092194	0.4071638082887376	0.9793062860907695
